Coordinates
version=1
nRows=9
nColumns=24
inDegrees=yes

Units are S.I. units (second, meters, Newtons, ...)
Angles are in degrees.

endheader
time	pelvis_tilt	pelvis_list	pelvis_rotation	pelvis_tx	pelvis_ty	pelvis_tz	hip_flexion_r	hip_adduction_r	hip_rotation_r	knee_angle_r	ankle_angle_r	subtalar_angle_r	mtp_angle_r	hip_flexion_l	hip_adduction_l	hip_rotation_l	knee_angle_l	ankle_angle_l	subtalar_angle_l	mtp_angle_l	lumbar_extension	lumbar_bending	lumbar_rotation
      0.76233333	     -1.27557882	     -2.33981992	      0.25809695	     -0.52228887	      0.99894924	      0.32616520	     14.13966736	      5.35813323	     -0.00011824	    -22.16656309	     11.69879901	    -11.34517115	     -1.08263288	     12.47964702	     -3.32239030	     -2.88471788	    -69.63940008	     -8.98321887	    -12.76833063	      1.99936476	    -11.37571983	     10.36974671	     -0.90649760
      0.76650000	     -1.20057114	     -2.24842869	      0.27966784	     -0.51730855	      1.00000037	      0.32662167	     13.53509748	      5.30963574	      0.09829084	    -21.74434000	     11.74959486	    -11.43223038	     -1.09512020	     13.02782056	     -3.30011462	     -3.04298258	    -69.72669613	     -8.38079083	    -12.92673245	      1.93647797	    -11.50495770	     10.19473782	     -0.62288056
      0.77066667	     -1.12749555	     -2.13580336	      0.28504568	     -0.51235283	      1.00101161	      0.32707738	     12.94466235	      5.23786545	      0.19801213	    -21.34578615	     11.80127661	    -11.50750324	     -1.10728377	     13.56837159	     -3.24963069	     -3.21253470	    -69.75866982	     -7.77778635	    -13.08369634	      1.87247432	    -11.63964850	      9.99598793	     -0.35487926
      0.77483333	     -1.06928651	     -2.01428590	      0.28866203	     -0.50737416	      1.00201356	      0.32751799	     12.35738425	      5.15500648	      0.30204815	    -20.92182673	     11.83904513	    -11.57948774	     -1.11992979	     14.11160299	     -3.18184163	     -3.37444534	    -69.72680166	     -7.20818790	    -13.22387284	      1.80792279	    -11.74835484	      9.78925044	     -0.09621799
      0.77900000	     -0.99091770	     -1.86648157	      0.27992418	     -0.50234795	      1.00306037	      0.32792928	     11.73990929	      5.03745920	      0.38879021	    -20.48461563	     11.88675936	    -11.62103062	     -1.12988355	     14.60701358	     -3.07733965	     -3.54600349	    -69.61240169	     -6.66444015	    -13.36093866	      1.75930889	    -11.84385741	      9.58238919	      0.11720913
      0.78316667	     -0.88846307	     -1.74763509	      0.27104441	     -0.49734223	      1.00410309	      0.32840622	     11.07270511	      4.96444678	      0.53524779	    -19.99309621	     11.92268658	    -11.72032021	     -1.15061181	     15.07499047	     -3.01855432	     -3.71483763	    -69.46025754	     -6.14638094	    -13.36527673	      1.64969799	    -12.01291222	      9.34175732	      0.51669710
      0.78733333	     -0.82016538	     -1.59329679	      0.25899566	     -0.49236878	      1.00506112	      0.32880088	     10.47320074	      4.83628262	      0.62322432	    -19.56334088	     11.93584269	    -11.75534983	     -1.16477545	     15.57032498	     -2.89594171	     -3.87031526	    -69.25452708	     -5.60135154	    -13.45727250	      1.58364135	    -12.13553664	      9.10824521	      0.71377687
      0.79150000	     -0.70233649	     -1.46112157	      0.24241481	     -0.48732514	      1.00610303	      0.32923380	      9.77631121	      4.73911698	      0.74213445	    -19.04514083	     11.97123885	    -11.83335134	     -1.18762710	     15.99012935	     -2.81045347	     -4.03618486	    -68.98066302	     -5.10074956	    -13.43216902	      1.47034145	    -12.29055000	      8.88298227	      1.05638993
      0.79566667	     -0.61521534	     -1.31638154	      0.22044790	     -0.48231336	      1.00705874	      0.32962235	      9.12742305	      4.62136080	      0.85161916	    -18.55352333	     11.97436683	    -11.88524215	     -1.21870040	     16.43497470	     -2.69568520	     -4.18949947	    -68.66080573	     -4.58318590	    -13.44491076	      1.31528137	    -12.42494913	      8.66237535	      1.35090895
